<svg width="23" height="23" viewBox="0 0 23 23" fill="none" xmlns="http://www.w3.org/2000/svg">
<path d="M22.9933 0H0.00673828C0.00301683 0 0 0.00301683 0 0.00673828V22.9933C0 22.997 0.00301683 23 0.00673828 23H22.9933C22.997 23 23 22.997 23 22.9933V0.00673828C23 0.00301683 22.997 0 22.9933 0Z" fill="#37AEE2"/>
<path d="M8.93945 18.1484C8.44531 18.1484 8.49023 17.9688 8.35547 17.5195L6.91797 12.8027L17.9238 6.33398" fill="#C8DAEA"/>
<path d="M8.93945 18.1484C9.25391 18.1484 9.43359 17.9688 9.6582 17.7891L11.6797 15.8574L9.16406 14.3301" fill="#A9C9DD"/>
<path d="M9.16407 14.3301L15.2285 18.7773C15.8574 19.1816 16.3965 18.957 16.5762 18.1484L19.0469 6.55859C19.2715 5.57031 18.6426 5.12109 17.9688 5.43555L3.54883 11.0059C2.60548 11.3652 2.60548 11.9492 3.36915 12.1738L7.09766 13.3418L15.6328 7.90625C16.0371 7.68164 16.3965 7.77148 16.127 8.08594" fill="#F6FBFE"/>
</svg>
