<svg width="23" height="23" viewBox="0 0 23 23" fill="none" xmlns="http://www.w3.org/2000/svg">
<path d="M18.975 0H4.025C1.80205 0 0 1.80205 0 4.025V18.975C0 21.1979 1.80205 23 4.025 23H18.975C21.1979 23 23 21.1979 23 18.975V4.025C23 1.80205 21.1979 0 18.975 0Z" fill="#4489C8"/>
<path d="M3.45721 7.10484H6.21721C6.27491 7.10475 6.33127 7.12224 6.37878 7.15498C6.42629 7.18773 6.46269 7.23417 6.48314 7.28812C6.78861 8.07516 8.05721 11.155 9.21799 11.4066C10.0805 11.4066 9.77502 7.30969 8.67892 7.30969C8.39142 7.30969 9.18924 6.79937 9.24314 6.77781C10.2618 6.49861 11.3367 6.49861 12.3553 6.77781C12.9052 7.00781 12.9986 7.65109 13.013 8.19734C13.0274 8.74359 12.402 11.0723 13.225 11.3239C14.3031 11.6545 15.6903 8.27281 16.0138 7.44265C16.0348 7.38937 16.0714 7.3437 16.1189 7.31163C16.1664 7.27956 16.2224 7.26259 16.2797 7.26297H19.3524C19.3998 7.26282 19.4466 7.27443 19.4885 7.29677C19.5304 7.31911 19.5661 7.35148 19.5925 7.39099C19.6188 7.4305 19.635 7.47591 19.6395 7.52318C19.644 7.57045 19.6367 7.6181 19.6183 7.66187C18.9854 9.10575 18.2266 10.4911 17.3506 11.8019C17.2762 11.91 17.2412 12.0406 17.2517 12.1715C17.2622 12.3024 17.3174 12.4257 17.4081 12.5206C18.3281 13.5053 20.8438 16.2941 19.4063 16.2941H16.3049C16.2247 16.2943 16.1454 16.2774 16.0723 16.2445C15.9992 16.2117 15.9339 16.1636 15.8808 16.1036C15.3992 15.5717 13.9977 14.0911 13.3652 14.2097C12.8405 14.3067 12.7902 15.198 12.8153 15.7802C12.8233 15.9304 12.772 16.0777 12.6726 16.1906C12.5732 16.3034 12.4335 16.3728 12.2835 16.3839C11.7336 16.4162 10.9825 16.4306 10.9142 16.427C8.72205 16.2869 7.42471 14.8242 6.18486 13.1927C4.88613 11.4629 3.87303 9.53617 3.18408 7.48578C3.17 7.44239 3.16631 7.39631 3.17331 7.35124C3.18031 7.30616 3.19781 7.26337 3.22438 7.2263C3.25096 7.18923 3.28588 7.15892 3.32632 7.13782C3.36676 7.11673 3.4116 7.10543 3.45721 7.10484V7.10484Z" fill="white"/>
</svg>
