<svg width="23" height="23" viewBox="0 0 23 23" fill="none" xmlns="http://www.w3.org/2000/svg">
<g clip-path="url(#clip0_319_138)">
<path d="M22.9816 2.37277V20.6488C22.9816 20.7888 22.9694 20.9286 22.9452 21.0666C22.847 21.6147 22.5592 22.1109 22.1322 22.4683C21.7052 22.8258 21.1661 23.0218 20.6093 23.022H2.37322C1.7438 23.022 1.14017 22.772 0.695101 22.3269C0.250035 21.8818 4.25677e-08 21.2782 4.25677e-08 20.6488V2.37277C-5.89935e-05 2.06112 0.0612892 1.75251 0.180539 1.46458C0.29979 1.17664 0.474605 0.915029 0.694996 0.694679C0.915388 0.474329 1.17704 0.299563 1.46499 0.180368C1.75295 0.0611719 2.06157 -0.000117863 2.37322 1.70158e-07H20.6084C20.92 -5.88292e-05 21.2286 0.0612712 21.5165 0.180488C21.8044 0.299704 22.0661 0.474472 22.2865 0.694811C22.5068 0.915149 22.6817 1.17674 22.8009 1.46465C22.9202 1.75256 22.9816 2.06114 22.9816 2.37277V2.37277Z" fill="url(#paint0_linear_319_138)"/>
<path opacity="0.2" d="M20.6268 4.25275e-08H19.6551C19.9667 -5.89569e-05 20.2753 0.0612711 20.5632 0.180488C20.8512 0.299704 21.1128 0.474472 21.3332 0.69481C21.5536 0.915149 21.7284 1.17674 21.8477 1.46465C21.9669 1.75256 22.0283 2.06114 22.0283 2.37277V20.6488C22.0284 20.7888 22.0162 20.9286 21.9919 21.0666C21.8937 21.6147 21.606 22.1109 21.1789 22.4683C20.7519 22.8258 20.2129 23.0218 19.656 23.022H20.6276C21.1845 23.0218 21.7236 22.8258 22.1506 22.4683C22.5776 22.1109 22.8654 21.6147 22.9636 21.0666C22.9878 20.9286 23 20.7888 23 20.6488V2.37277C23 2.06114 22.9386 1.75256 22.8193 1.46465C22.7 1.17674 22.5252 0.915149 22.3048 0.69481C22.0845 0.474472 21.8228 0.299704 21.5349 0.180488C21.247 0.0612711 20.9384 -5.89569e-05 20.6268 4.25275e-08V4.25275e-08Z" fill="url(#paint1_linear_319_138)"/>
<path d="M17.8097 11.5C17.8118 13.0285 17.2571 14.5054 16.2491 15.6544V15.6544C15.2211 16.8295 13.794 17.5818 12.2436 17.7658C10.6931 17.9498 9.12954 17.5525 7.85501 16.6507L5.82544 17.1943L6.36765 15.1701C5.78958 14.3618 5.4106 13.4284 5.26159 12.4458C5.11257 11.4633 5.19774 10.4595 5.51014 9.51613C5.82255 8.57276 6.35336 7.71651 7.05935 7.01713C7.76533 6.31775 8.62653 5.79501 9.5728 5.49149C10.5191 5.18797 11.5236 5.11225 12.5047 5.27049C13.4858 5.42873 14.4156 5.81647 15.2185 6.40212C16.0213 6.98776 16.6745 7.75476 17.1248 8.64065C17.5751 9.52653 17.8097 10.5062 17.8097 11.5V11.5Z" fill="url(#paint2_linear_319_138)"/>
<path opacity="0.2" d="M11.4627 5.20735C10.0989 5.20504 8.77146 5.64653 7.68073 6.46516C7.39748 6.67802 7.13243 6.91408 6.88831 7.17088C8.06434 6.05028 9.62727 5.42646 11.2517 5.4293C12.8761 5.43214 14.4369 6.06141 15.609 7.18611C16.7811 8.31081 17.4743 9.84426 17.5441 11.4672C17.614 13.0901 17.0552 14.6775 15.9841 15.8988V15.8988C15.927 15.9643 15.8682 16.0286 15.8084 16.0915C15.9489 15.9576 16.0837 15.8174 16.2127 15.671C17.0109 14.7587 17.5294 13.6357 17.7061 12.4365C17.8828 11.2372 17.7104 10.0124 17.2093 8.90863C16.7082 7.80483 15.8998 6.86875 14.8806 6.21236C13.8615 5.55596 12.6749 5.20705 11.4627 5.20735V5.20735Z" fill="#CFE182"/>
<path d="M11.575 3.7622C10.093 3.76048 8.64282 4.19224 7.4031 5.00429C7.3405 5.04502 7.27881 5.08665 7.21802 5.12918C5.66175 6.20533 4.56151 7.82199 4.1314 9.66457C3.70129 11.5071 3.97207 13.4438 4.89106 15.0978L3.78149 19.2378L7.94216 18.1228C9.55252 18.9985 11.4246 19.2643 13.215 18.8715C15.0055 18.4786 16.5944 17.4535 17.6902 15.9841C17.7176 15.9477 17.7441 15.9113 17.7706 15.8749C18.7123 14.5752 19.2185 13.0107 19.2167 11.4057C19.2184 7.19109 15.79 3.7622 11.575 3.7622ZM16.1925 15.5371C16.1683 15.5636 16.144 15.5906 16.1197 15.6166C15.158 16.6592 13.8667 17.3389 12.4628 17.5413C11.0589 17.7437 9.62817 17.4565 8.41114 16.728L8.1488 16.5717L7.85456 16.6503L5.82499 17.1938L6.3672 15.1697L6.44401 14.8831L6.28319 14.6189C5.50881 13.352 5.21681 11.8486 5.46068 10.3839C5.70456 8.91929 6.46797 7.59155 7.61108 6.64394C7.65601 6.60801 7.69778 6.57252 7.74181 6.53793C8.52102 5.92357 9.43638 5.50535 10.4109 5.31844C11.3854 5.13152 12.3905 5.18139 13.3418 5.46385L13.3755 5.47418C14.8241 5.91733 16.0614 6.87356 16.8556 8.16365L16.8852 8.21172C17.5687 9.34624 17.8701 10.6701 17.7453 11.9887C17.6204 13.3073 17.0759 14.551 16.1916 15.5371H16.1925Z" fill="white"/>
<g opacity="0.2">
<path opacity="0.2" d="M5.12378 11.659C5.12553 12.7931 5.43897 13.9048 6.02985 14.8727L6.19112 15.1364L6.11386 15.4235L5.5703 17.4476L7.60032 16.9036L7.89456 16.8246L8.1578 16.9805C9.36643 17.7039 10.7861 17.9924 12.1812 17.7979C13.5764 17.6034 14.8631 16.9378 15.8278 15.9113C14.8501 16.8383 13.596 17.4199 12.2568 17.5673C10.9177 17.7148 9.56709 17.42 8.41116 16.728L8.14882 16.5717L7.85458 16.6503L5.82501 17.1938L6.36722 15.1697L6.44403 14.8831L6.28321 14.6189C5.57533 13.4614 5.2686 12.1029 5.41046 10.7536C5.55232 9.40422 6.13487 8.13922 7.068 7.15425C6.4537 7.73272 5.9643 8.43081 5.62994 9.20553C5.29557 9.98026 5.12332 10.8152 5.12378 11.659V11.659Z" fill="#003028"/>
<path d="M11.575 3.7622C10.093 3.76048 8.64287 4.19224 7.40314 5.00429C7.34055 5.04502 7.27886 5.08665 7.21807 5.12918C6.79552 5.42368 6.40349 5.75972 6.04785 6.13228C6.33316 5.85924 6.63909 5.60858 6.96291 5.38254C7.02281 5.34001 7.08465 5.29838 7.14844 5.25765C8.38813 4.44552 9.83831 4.01376 11.3203 4.01556C15.5349 4.01556 18.9638 7.44445 18.9638 11.659C18.966 13.2634 18.4604 14.8274 17.5196 16.1269C17.4935 16.1638 17.4665 16.2002 17.4391 16.2361C17.2568 16.4797 17.06 16.712 16.8498 16.9319C17.1561 16.6392 17.438 16.3219 17.6925 15.9832C17.7199 15.9468 17.7464 15.9104 17.7729 15.874C18.7146 14.5743 19.2208 13.0098 19.2189 11.4048C19.2185 7.19109 15.7901 3.7622 11.575 3.7622Z" fill="#BFCE69"/>
</g>
<path fill-rule="evenodd" clip-rule="evenodd" d="M14.4199 12.4685C14.1055 12.2803 13.6958 12.0705 13.3256 12.2219C13.0413 12.3382 12.8598 12.7834 12.6752 13.0107C12.5808 13.1275 12.4681 13.1455 12.323 13.0871C11.2556 12.6621 10.4363 11.9492 9.8487 10.9677C9.74897 10.8149 9.76694 10.695 9.88688 10.5535C10.0666 10.3437 10.2885 10.1043 10.3361 9.82352C10.3837 9.54275 10.2516 9.21123 10.1348 8.96012C9.98571 8.63848 9.82039 8.18072 9.49741 7.99879C9.20137 7.83168 8.8119 7.92512 8.54866 8.13984C8.0936 8.51045 7.87483 9.09084 7.88067 9.66719C7.88203 9.83063 7.90193 9.99339 7.93997 10.1523C8.02981 10.5319 8.20725 10.8864 8.40446 11.2233C8.55305 11.4774 8.715 11.7235 8.88961 11.9604C9.45812 12.7411 10.1723 13.4044 10.9929 13.9137C11.4048 14.1711 11.8449 14.3805 12.3046 14.5376C12.8189 14.7074 13.2767 14.884 13.8319 14.7788C14.4128 14.6683 14.9855 14.309 15.2164 13.7488C15.2904 13.5841 15.3127 13.4009 15.2806 13.2232C15.2016 12.8589 14.7115 12.6437 14.4199 12.4685Z" fill="white"/>
<g opacity="0.55">
<path fill-rule="evenodd" clip-rule="evenodd" d="M8.44534 8.24137C8.70903 8.02664 9.0985 7.9332 9.39454 8.10031C9.71618 8.28 9.88284 8.74 10.032 9.06119C10.1488 9.31275 10.2813 9.64248 10.2328 9.92504C10.1843 10.2076 9.96325 10.4452 9.78356 10.6546C9.66317 10.7961 9.6452 10.9165 9.74493 11.0688C10.3339 12.0507 11.1519 12.7632 12.2192 13.1882C12.3643 13.2466 12.4775 13.2286 12.5719 13.1118C12.5793 13.1025 12.587 13.0926 12.5948 13.0821C12.5175 13.1316 12.4277 13.1302 12.3207 13.0871C11.2534 12.6621 10.434 11.9492 9.84645 10.9677C9.74672 10.8149 9.76469 10.695 9.88463 10.5535C10.0643 10.3437 10.2862 10.1043 10.3339 9.82352C10.3815 9.54275 10.2494 9.21123 10.1326 8.96012C9.98346 8.63848 9.81815 8.18072 9.49516 7.99879C9.19913 7.83168 8.80965 7.92512 8.54641 8.13984C8.48407 8.19061 8.42551 8.24586 8.37122 8.30516C8.39637 8.28315 8.42108 8.26203 8.44534 8.24137Z" fill="#BFCE69"/>
<path fill-rule="evenodd" clip-rule="evenodd" d="M15.2807 13.221C15.2016 12.8589 14.7115 12.6437 14.4186 12.4685C14.1042 12.2803 13.6945 12.0705 13.3243 12.2219C13.2315 12.2646 13.15 12.3285 13.0862 12.4083C13.1266 12.3734 13.1721 12.3448 13.221 12.3234C13.5916 12.1716 14.0009 12.3818 14.3158 12.57C14.6086 12.7448 15.0987 12.9604 15.1774 13.3225C15.2096 13.4999 15.1873 13.683 15.1136 13.8476C15.0457 14.0101 14.9496 14.1593 14.8297 14.2883C14.9969 14.1382 15.129 13.9531 15.2164 13.7461C15.2903 13.5815 15.3127 13.3985 15.2807 13.221V13.221Z" fill="#BFCE69"/>
</g>
<g opacity="0.2">
<path fill-rule="evenodd" clip-rule="evenodd" d="M14.0745 14.5372C13.5192 14.6427 13.0615 14.4657 12.5471 14.2959C12.0874 14.1389 11.6471 13.9297 11.235 13.6724C10.4146 13.1629 9.70047 12.4997 9.13172 11.7192C8.9571 11.4821 8.79516 11.2359 8.64656 10.9816C8.44936 10.6447 8.27371 10.2907 8.18207 9.91112C8.1438 9.75249 8.1236 9.59003 8.12188 9.42686C8.11649 8.96731 8.25664 8.50461 8.54369 8.14793L8.53651 8.15377C8.0819 8.52438 7.86268 9.10477 7.86897 9.68112C7.87077 9.84426 7.89081 10.0067 7.92871 10.1654C8.0208 10.545 8.19824 10.8994 8.39365 11.2363C8.54236 11.4904 8.70415 11.7366 8.87836 11.9739C9.44727 12.7542 10.1618 13.417 10.9825 13.9258C11.3944 14.1833 11.8346 14.3926 12.2942 14.5498C12.8081 14.7196 13.2663 14.8965 13.8216 14.791C14.2667 14.7065 14.707 14.4765 14.9927 14.1198C14.7252 14.3317 14.41 14.475 14.0745 14.5372Z" fill="#006C32"/>
</g>
<path opacity="0.2" d="M21.3022 21.0087C22.1682 21.0564 22.8157 21.9134 22.1506 22.4701V22.4701C21.7236 22.8276 21.1846 23.0236 20.6277 23.0238H2.39166C2.07985 23.0238 1.7711 22.9624 1.48305 22.843C1.195 22.7236 0.933296 22.5486 0.712899 22.3281C0.492501 22.1075 0.317728 21.8457 0.198568 21.5575C0.0794082 21.2694 0.0181972 20.9606 0.0184333 20.6488V2.37277C0.0185082 1.81077 0.218024 1.26703 0.58146 0.838363V0.838363C1.11686 0.206861 1.88903 0.863503 1.83366 1.68957C1.42698 7.7574 2.91786 19.9968 21.3022 21.0087Z" fill="#006C32"/>
</g>
<defs>
<linearGradient id="paint0_linear_319_138" x1="35.5242" y1="1.30678" x2="5.71496" y2="13.9635" gradientUnits="userSpaceOnUse">
<stop offset="0.38" stop-color="#8FC73F"/>
<stop offset="1" stop-color="#00A650"/>
</linearGradient>
<linearGradient id="paint1_linear_319_138" x1="16.431" y1="11.5108" x2="25.6319" y2="11.5108" gradientUnits="userSpaceOnUse">
<stop offset="0.31" stop-color="white" stop-opacity="0.2"/>
<stop offset="1" stop-color="white"/>
</linearGradient>
<linearGradient id="paint2_linear_319_138" x1="18.4674" y1="3.06996" x2="9.30239" y2="14.1589" gradientUnits="userSpaceOnUse">
<stop offset="0.38" stop-color="#8FC73F"/>
<stop offset="1" stop-color="#00A650"/>
</linearGradient>
<clipPath id="clip0_319_138">
<rect width="23" height="23" rx="5" fill="white"/>
</clipPath>
</defs>
</svg>
